# Blender v2.77 (sub 0) OBJ File: 'FirstAidKit.blend'
# www.blender.org
mtllib FirstAidKit.mtl
o AidKit.001_Cube.001
v 0.827666 -0.030489 -0.264894
v 0.827666 -0.030489 0.264894
v 0.758956 -0.030489 0.264894
v 0.758956 -0.030489 -0.264895
v 0.827666 0.030489 -0.264894
v 0.827666 0.030489 0.264895
v 0.758956 0.030489 0.264894
v 0.758956 0.030489 -0.264894
v 0.758956 0.030489 0.189489
v 0.758956 0.030489 -0.189490
v 0.758956 -0.030489 0.189489
v 0.758956 -0.030489 -0.189490
v 0.635190 -0.030489 -0.264895
v 0.635190 0.030489 -0.264894
v 0.635190 0.030489 -0.189490
v 0.635190 -0.030489 -0.189490
v 0.635190 -0.030489 0.264894
v 0.635190 0.030489 0.264894
v 0.635190 0.030489 0.189489
v 0.635190 -0.030489 0.189489
v 0.758956 0.030489 -0.189184
v 0.827599 0.030489 -0.189490
v 0.827666 0.030489 0.189489
v 0.827599 -0.030489 -0.189490
v 0.827666 -0.030489 0.189489
v 0.646354 -0.148715 -0.895106
v 0.646354 -0.148715 0.895106
v -0.646354 -0.148715 0.895106
v -0.646353 -0.148715 -0.895106
v 0.646354 0.148715 -0.895105
v 0.646353 0.148715 0.895106
v -0.646354 0.148715 0.895105
v -0.646353 0.148715 -0.895106
v 0.646353 0.148715 0.000000
v 0.000000 0.148715 -0.895106
v -0.000000 0.148715 0.895106
v -0.646354 0.148715 -0.000000
v -0.000000 0.148715 0.000000
v 0.646353 0.148715 0.447553
v -0.323177 0.148715 -0.895106
v -0.323177 0.148715 0.895106
v -0.646353 0.148715 -0.447553
v 0.646354 0.148715 -0.447552
v 0.323177 0.148715 -0.895105
v 0.323176 0.148715 0.895106
v -0.646354 0.148715 0.447553
v -0.000000 0.148715 0.447553
v 0.000000 0.148715 -0.447553
v 0.323177 0.148715 0.000000
v -0.323177 0.148715 -0.000000
v -0.323177 0.148715 -0.447553
v 0.323177 0.148715 -0.447553
v 0.323177 0.148715 0.447553
v -0.323177 0.148715 0.447553
vt 0.3389 1.0000
vt 0.3389 0.8577
vt 0.3926 0.8577
vt 0.3926 1.0000
vt 0.5000 0.7266
vt 0.4463 0.7266
vt 0.4463 0.5969
vt 0.5000 0.5969
vt 0.4463 0.0000
vt 0.5000 0.0000
vt 0.5000 0.1297
vt 0.4463 0.1297
vt 0.5000 0.3633
vt 0.4463 0.3633
vt 0.2784 0.0000
vt 0.2784 0.1423
vt 0.1695 0.1423
vt 0.1695 0.0000
vt 0.4463 0.3633
vt 0.5000 0.3633
vt 0.4463 0.9490
vt 0.3926 0.9490
vt 0.3926 0.7153
vt 0.4463 0.7153
vt 0.2784 0.8577
vt 0.2784 1.0000
vt 0.1695 1.0000
vt 0.1695 0.8577
vt 0.1090 0.0000
vt 0.1090 0.1423
vt 0.0000 0.1423
vt 0.0000 0.0000
vt 0.4463 0.0000
vt 0.4463 0.7153
vt 0.3926 0.7153
vt 0.3926 0.0006
vt 0.5000 0.7266
vt 0.5000 0.9602
vt 0.4463 0.9602
vt 0.4463 0.7266
vt 0.0000 1.0000
vt 0.0000 0.8577
vt 0.1090 0.8577
vt 0.1090 1.0000
vt 0.1695 0.1423
vt 0.1695 0.0000
vt 0.1694 0.8577
vt 0.1695 1.0000
vt 0.3389 0.0000
vt 0.3389 0.1423
vt 0.3333 0.3333
vt 0.5000 0.3333
vt 0.5000 0.6667
vt 0.3333 0.6667
vt 0.6325 0.6972
vt 0.6325 0.9038
vt 0.5134 0.9038
vt 0.5134 0.6972
vt 0.0000 0.0000
vt 0.1667 0.0000
vt 0.1667 0.0833
vt 0.1667 0.1667
vt 0.1667 0.2500
vt 0.1667 0.3333
vt 0.0000 0.3333
vt 0.1667 0.3333
vt 0.1667 0.0000
vt 0.2083 0.0000
vt 0.2500 0.0000
vt 0.2917 0.0000
vt 0.3333 0.0000
vt 0.3333 0.3333
vt 0.5000 0.3333
vt 0.3333 0.3333
vt 0.3333 0.2500
vt 0.3333 0.1667
vt 0.3333 0.0833
vt 0.3333 0.0000
vt 0.5000 0.0000
vt 0.0000 0.3333
vt 0.1667 0.3333
vt 0.1667 0.6667
vt 0.0000 0.6667
vt 0.0000 0.5833
vt 0.0000 0.5000
vt 0.0000 0.4167
vt 0.6325 0.2842
vt 0.6325 0.4907
vt 0.5134 0.4907
vt 0.5134 0.2842
vt 0.8706 0.2842
vt 0.8706 0.4907
vt 0.7516 0.4907
vt 0.7516 0.2842
vt 0.8706 0.6972
vt 0.8706 0.9038
vt 0.7516 0.9038
vt 0.7516 0.6972
vt 0.9897 0.4907
vt 0.9897 0.6972
vt 0.9897 0.9038
vt 0.8706 0.0776
vt 0.7516 0.0776
vt 0.9897 0.0776
vt 0.9897 0.2842
vt 0.6325 0.0776
vt 0.5134 0.0776
vt 0.3926 0.1423
vt 0.3926 0.0000
vn 0.5774 -0.5774 0.5774
vn 0.7071 -0.7071 -0.0001
vn 0.7071 0.7071 -0.0001
vn 0.5773 0.5773 0.5774
vn -0.0000 0.7071 0.7071
vn -0.0000 -0.7071 0.7071
vn 0.5776 0.5773 -0.5771
vn 0.5776 -0.5773 -0.5771
vn 0.0000 -0.7071 -0.7071
vn 0.0000 0.7071 -0.7071
vn -0.3006 -0.9048 0.3016
vn -0.3015 0.9045 -0.3015
vn -0.3015 -0.9045 -0.3015
vn -1.0000 -0.0000 0.0000
vn 0.0000 0.9487 0.3162
vn 0.7070 0.7072 0.0003
vn 0.7070 -0.7072 0.0003
vn 0.5774 -0.5774 -0.5774
vn 0.5774 -0.5774 0.5773
vn -0.5774 -0.5774 0.5774
vn -0.5773 -0.5774 -0.5774
vn 0.0000 1.0000 -0.0000
vn -0.7071 0.7071 -0.0000
vn -0.5774 0.5774 0.5774
vn 0.5774 0.5774 -0.5773
vn 0.7071 0.7071 0.0000
vn 0.5773 0.5774 0.5774
vn -0.5774 0.5774 -0.5774
usemtl MetalMat
s 1
f 2/1/1 25/2/2 23/3/3 6/4/4
f 2/5/1 6/6/4 7/7/5 3/8/6
f 5/9/7 1/10/8 4/11/9 8/12/10
f 8/12/10 4/11/9 13/13/9 14/14/10
f 4/15/9 12/16/11 16/17/6 13/18/9
f 3/8/6 7/7/5 18/19/5 17/20/6
f 9/21/12 11/22/13 20/23/9 19/24/10
f 11/25/13 3/26/6 17/27/6 20/28/9
f 7/29/5 9/30/12 19/31/10 18/32/5
f 12/33/11 11/34/13 9/35/12 21/36/14
f 16/37/6 12/38/11 10/39/15 15/40/5
f 14/41/10 15/42/5 10/43/15 8/44/10
f 23/45/3 9/30/12 7/29/5 6/46/4
f 22/47/16 10/43/15 9/30/12 23/45/3
f 5/48/7 8/44/10 10/43/15 22/47/16
f 1/49/8 24/50/17 12/16/11 4/15/9
f 11/25/13 12/16/11 24/50/17 25/2/2
f 25/2/2 2/1/1 3/26/6 11/25/13
f 26/51/18 27/52/19 28/53/20 29/54/21
f 54/55/22 46/56/23 32/57/24 41/58/5
f 26/59/18 30/60/25 43/61/26 34/62/26 39/63/26 31/64/27 27/65/19
f 27/66/19 31/67/27 45/68/5 36/69/5 41/70/5 32/71/24 28/72/20
f 28/73/20 32/74/24 46/75/23 37/76/23 42/77/23 33/78/28 29/79/21
f 30/80/25 26/81/18 29/82/21 33/83/28 40/84/10 35/85/10 44/86/10
f 53/87/22 47/88/22 36/89/5 45/90/5
f 52/91/22 48/92/22 38/93/22 49/94/22
f 51/95/22 42/96/23 37/97/23 50/98/22
f 48/92/22 51/95/22 50/98/22 38/93/22
f 35/99/10 40/100/10 51/95/22 48/92/22
f 40/100/10 33/101/28 42/96/23 51/95/22
f 43/102/26 52/91/22 49/94/22 34/103/26
f 30/104/25 44/105/10 52/91/22 43/102/26
f 44/105/10 35/99/10 48/92/22 52/91/22
f 39/106/26 53/87/22 45/90/5 31/107/27
f 34/103/26 49/94/22 53/87/22 39/106/26
f 49/94/22 38/93/22 47/88/22 53/87/22
f 47/88/22 54/55/22 41/58/5 36/89/5
f 38/93/22 50/98/22 54/55/22 47/88/22
f 50/98/22 37/97/23 46/56/23 54/55/22
f 25/2/2 24/50/17 22/108/16 23/3/3
f 24/50/17 1/49/8 5/109/7 22/108/16
