# Blender v2.79 (sub 0) OBJ File: ''
# www.blender.org
mtllib medkit.mtl
o AidKit.001_Cube.001
v -0.827666 -0.030489 -0.264894
v -0.827666 -0.030489 -0.189489
v -0.827666 0.030489 -0.189489
v -0.827666 0.030489 -0.264895
v -0.758956 0.030489 -0.264894
v -0.758956 -0.030489 -0.264894
v -0.827666 0.030489 0.264894
v -0.827666 -0.030489 0.264894
v -0.758956 -0.030489 0.264895
v -0.758956 0.030489 0.264894
v -0.635190 -0.030489 0.264895
v -0.635190 0.030489 0.264894
v -0.758956 -0.030489 0.189490
v -0.635190 -0.030489 0.189490
v -0.635190 0.030489 -0.264894
v -0.635190 -0.030489 -0.264894
v -0.758956 0.030489 -0.189489
v -0.758956 -0.030489 -0.189489
v -0.635190 -0.030489 -0.189489
v -0.635190 0.030489 -0.189489
v -0.758956 0.030489 0.189184
v -0.758956 0.030489 0.189490
v -0.635190 0.030489 0.189490
v -0.827599 0.030489 0.189490
v -0.827599 -0.030489 0.189490
v -0.646354 -0.148715 0.895106
v -0.646354 -0.148715 -0.895106
v 0.646354 -0.148715 -0.895106
v 0.646353 -0.148715 0.895106
v 0.323177 0.148715 -0.447553
v 0.646354 0.148715 -0.447553
v 0.646354 0.148715 -0.895105
v 0.323177 0.148715 -0.895106
v -0.646354 0.148715 0.895105
v -0.646354 0.148715 0.447552
v -0.646353 0.148715 -0.000000
v -0.646353 0.148715 -0.447553
v -0.646353 0.148715 -0.895106
v -0.323176 0.148715 -0.895106
v 0.000000 0.148715 -0.895106
v 0.646354 0.148715 -0.000000
v 0.646353 0.148715 0.447553
v 0.646353 0.148715 0.895106
v 0.323177 0.148715 0.895106
v 0.000000 0.148715 0.895106
v -0.323177 0.148715 0.895105
v -0.323177 0.148715 -0.447553
v 0.000000 0.148715 -0.447553
v -0.323177 0.148715 0.447553
v 0.000000 0.148715 0.447553
v 0.000000 0.148715 -0.000000
v -0.323177 0.148715 -0.000000
v 0.323177 0.148715 0.447553
v 0.323177 0.148715 -0.000000
vt 0.338900 1.000000
vt 0.338900 0.857700
vt 0.392600 0.857700
vt 0.392600 1.000000
vt 0.500000 0.726600
vt 0.446300 0.726600
vt 0.446300 0.596900
vt 0.500000 0.596900
vt 0.446300 0.000000
vt 0.500000 0.000000
vt 0.500000 0.129700
vt 0.446300 0.129700
vt 0.500000 0.363300
vt 0.446300 0.363300
vt 0.278400 0.000000
vt 0.278400 0.142300
vt 0.169500 0.142300
vt 0.169500 0.000000
vt 0.446300 0.363300
vt 0.500000 0.363300
vt 0.446300 0.949000
vt 0.392600 0.949000
vt 0.392600 0.715300
vt 0.446300 0.715300
vt 0.278400 0.857700
vt 0.278400 1.000000
vt 0.169500 1.000000
vt 0.169500 0.857700
vt 0.109000 0.000000
vt 0.109000 0.142300
vt 0.000000 0.142300
vt 0.000000 0.000000
vt 0.446300 0.000000
vt 0.446300 0.715300
vt 0.392600 0.715300
vt 0.392600 0.000600
vt 0.500000 0.726600
vt 0.500000 0.960200
vt 0.446300 0.960200
vt 0.446300 0.726600
vt 0.000000 1.000000
vt 0.000000 0.857700
vt 0.109000 0.857700
vt 0.109000 1.000000
vt 0.169500 0.142300
vt 0.169500 0.000000
vt 0.169400 0.857700
vt 0.169500 1.000000
vt 0.338900 0.000000
vt 0.338900 0.142300
vt 0.333300 0.333300
vt 0.500000 0.333300
vt 0.500000 0.666700
vt 0.333300 0.666700
vt 0.632500 0.697200
vt 0.632500 0.903800
vt 0.513400 0.903800
vt 0.513400 0.697200
vt 0.000000 0.000000
vt 0.166700 0.000000
vt 0.166700 0.083300
vt 0.166700 0.166700
vt 0.166700 0.250000
vt 0.166700 0.333300
vt 0.000000 0.333300
vt 0.166700 0.333300
vt 0.166700 0.000000
vt 0.208300 0.000000
vt 0.250000 0.000000
vt 0.291700 0.000000
vt 0.333300 0.000000
vt 0.333300 0.333300
vt 0.500000 0.333300
vt 0.333300 0.333300
vt 0.333300 0.250000
vt 0.333300 0.166700
vt 0.333300 0.083300
vt 0.333300 0.000000
vt 0.500000 0.000000
vt 0.000000 0.333300
vt 0.166700 0.333300
vt 0.166700 0.666700
vt 0.000000 0.666700
vt 0.000000 0.583300
vt 0.000000 0.500000
vt 0.000000 0.416700
vt 0.632500 0.284200
vt 0.632500 0.490700
vt 0.513400 0.490700
vt 0.513400 0.284200
vt 0.870600 0.284200
vt 0.870600 0.490700
vt 0.751600 0.490700
vt 0.751600 0.284200
vt 0.870600 0.697200
vt 0.870600 0.903800
vt 0.751600 0.903800
vt 0.751600 0.697200
vt 0.989700 0.490700
vt 0.989700 0.697200
vt 0.989700 0.903800
vt 0.870600 0.077600
vt 0.751600 0.077600
vt 0.989700 0.077600
vt 0.989700 0.284200
vt 0.632500 0.077600
vt 0.513400 0.077600
vt 0.392600 0.142300
vt 0.392600 0.000000
vn -0.5773 -0.5774 -0.5773
vn -0.7071 -0.7071 0.0001
vn -0.7071 0.7071 0.0001
vn -0.5773 0.5773 -0.5774
vn 0.0000 0.7071 -0.7071
vn 0.0000 -0.7071 -0.7071
vn -0.5776 0.5773 0.5771
vn -0.5776 -0.5773 0.5771
vn -0.0000 -0.7071 0.7071
vn -0.0000 0.7071 0.7071
vn 0.3006 -0.9048 -0.3016
vn 0.3015 0.9045 0.3015
vn 0.3015 -0.9045 0.3015
vn 1.0000 0.0000 0.0000
vn 0.0000 0.9487 -0.3162
vn -0.7070 0.7072 -0.0003
vn -0.7070 -0.7072 -0.0003
vn -0.5774 -0.5773 0.5774
vn -0.5774 -0.5773 -0.5774
vn 0.5773 -0.5774 -0.5774
vn 0.5774 -0.5774 0.5774
vn 0.0000 1.0000 -0.0000
vn 0.7071 0.7071 0.0000
vn 0.5774 0.5774 -0.5773
vn -0.5774 0.5774 0.5773
vn -0.7071 0.7071 -0.0000
vn -0.5773 0.5774 -0.5774
vn 0.5773 0.5774 0.5774
usemtl MetalMat
s 1
f 1/1/1 2/2/2 3/3/3 4/4/4
f 1/5/1 4/6/4 5/7/5 6/8/6
f 7/9/7 8/10/8 9/11/9 10/12/10
f 10/12/10 9/11/9 11/13/9 12/14/10
f 9/15/9 13/16/11 14/17/6 11/18/9
f 6/8/6 5/7/5 15/19/5 16/20/6
f 17/21/12 18/22/13 19/23/9 20/24/10
f 18/25/13 6/26/6 16/27/6 19/28/9
f 5/29/5 17/30/12 20/31/10 15/32/5
f 13/33/11 18/34/13 17/35/12 21/36/14
f 14/37/6 13/38/11 22/39/15 23/40/5
f 12/41/10 23/42/5 22/43/15 10/44/10
f 3/45/3 17/30/12 5/29/5 4/46/4
f 24/47/16 22/43/15 17/30/12 3/45/3
f 7/48/7 10/44/10 22/43/15 24/47/16
f 8/49/8 25/50/17 13/16/11 9/15/9
f 18/25/13 13/16/11 25/50/17 2/2/2
f 2/2/2 1/1/1 6/26/6 18/25/13
f 26/51/18 27/52/19 28/53/20 29/54/21
f 30/55/22 31/56/23 32/57/24 33/58/5
f 26/59/18 34/60/25 35/61/26 36/62/26 37/63/26 38/64/27 27/65/19
f 27/66/19 38/67/27 39/68/5 40/69/5 33/70/5 32/71/24 28/72/20
f 28/73/20 32/74/24 31/75/23 41/76/23 42/77/23 43/78/28 29/79/21
f 34/80/25 26/81/18 29/82/21 43/83/28 44/84/10 45/85/10 46/86/10
f 47/87/22 48/88/22 40/89/5 39/90/5
f 49/91/22 50/92/22 51/93/22 52/94/22
f 53/95/22 42/96/23 41/97/23 54/98/22
f 50/92/22 53/95/22 54/98/22 51/93/22
f 45/99/10 44/100/10 53/95/22 50/92/22
f 44/100/10 43/101/28 42/96/23 53/95/22
f 35/102/26 49/91/22 52/94/22 36/103/26
f 34/104/25 46/105/10 49/91/22 35/102/26
f 46/105/10 45/99/10 50/92/22 49/91/22
f 37/106/26 47/87/22 39/90/5 38/107/27
f 36/103/26 52/94/22 47/87/22 37/106/26
f 52/94/22 51/93/22 48/88/22 47/87/22
f 48/88/22 30/55/22 33/58/5 40/89/5
f 51/93/22 54/98/22 30/55/22 48/88/22
f 54/98/22 41/97/23 31/56/23 30/55/22
f 2/2/2 25/50/17 24/108/16 3/3/3
f 25/50/17 8/49/8 7/109/7 24/108/16
