# Blender v2.79 (sub 0) OBJ File: ''
# www.blender.org
mtllib wall2.mtl
o Cube_Cube.001
v 0.697163 -0.005736 -0.049039
v 0.697163 -0.005736 -0.049039
v 0.697163 -0.005736 -0.049039
v 0.697163 -0.005736 0.053658
v 0.697163 -0.005736 0.053658
v 0.697163 -0.005736 0.053658
v -0.698273 -0.005736 -0.049039
v -0.698273 -0.005736 -0.049039
v -0.698273 -0.005736 -0.049039
v -0.698273 -0.005736 0.053658
v -0.698273 -0.005736 0.053658
v -0.698273 -0.005736 0.053658
v 0.697163 0.504781 -0.049039
v 0.697163 0.504781 -0.049039
v 0.697163 0.504781 -0.049039
v 0.697163 0.504781 -0.049039
v 0.697163 0.504781 0.053658
v 0.697163 0.504781 0.053658
v 0.697163 0.504781 0.053658
v 0.697163 0.504781 0.053658
v -0.698273 0.504781 0.053658
v -0.698273 0.504781 0.053658
v -0.698273 0.504781 0.053658
v -0.698273 0.504781 0.053658
v -0.698273 0.504781 -0.049039
v -0.698273 0.504781 -0.049039
v -0.698273 0.504781 -0.049039
v -0.698273 0.504781 -0.049039
v 0.705925 0.510193 -0.049684
v 0.705925 0.510193 -0.049684
v 0.705925 0.510193 -0.049684
v 0.705925 0.510193 -0.049684
v 0.705925 0.510193 0.054303
v 0.705925 0.510193 0.054303
v 0.705925 0.510193 0.054303
v 0.705925 0.510193 0.054303
v -0.707035 0.510193 0.054303
v -0.707035 0.510193 0.054303
v -0.707035 0.510193 0.054303
v -0.707035 0.510193 0.054303
v -0.707035 0.510193 -0.049684
v -0.707035 0.510193 -0.049684
v -0.707035 0.510193 -0.049684
v -0.707035 0.510193 -0.049684
v 0.705925 0.577696 -0.049684
v 0.705925 0.577696 -0.049684
v 0.705925 0.577696 -0.049684
v 0.705925 0.577696 0.054303
v 0.705925 0.577696 0.054303
v 0.705925 0.577696 0.054303
v -0.707035 0.577696 0.054303
v -0.707035 0.577696 0.054303
v -0.707035 0.577696 0.054303
v -0.707035 0.577696 -0.049684
v -0.707035 0.577696 -0.049684
v -0.707035 0.577696 -0.049684
vt 0.996468 0.017914
vt 0.998350 0.858032
vt -0.001390 0.839557
vt -0.003271 -0.000562
vt 0.050459 0.003048
vt 0.050459 0.842486
vt -0.000300 0.842486
vt -0.000300 0.003048
vt 0.998018 0.009483
vt 0.996468 0.859017
vt 0.931758 0.859017
vt 0.933308 0.009483
vt 0.000027 0.115038
vt 0.000027 0.041447
vt 0.999973 0.041447
vt 0.999973 0.115038
vt 0.000281 0.865803
vt 0.958037 0.865761
vt 0.999927 0.840887
vt 0.000240 0.840543
vt 0.166437 0.857251
vt 0.245869 0.857251
vt 0.245869 0.999317
vt 0.166437 0.999317
vt 0.008560 0.845290
vt 0.974649 0.845194
vt 1.002526 0.862545
vt 0.002644 0.862257
vt 0.381591 0.875533
vt 0.144057 0.874139
vt 0.142581 0.850311
vt 0.383098 0.851723
vt 0.082450 0.870344
vt -0.040448 0.870344
vt -0.041220 0.858020
vt 0.083222 0.858020
vt 0.999604 -0.002265
vt 0.999604 0.145877
vt -0.000342 0.145877
vt -0.000342 -0.002265
vt -0.010687 0.854380
vt 0.073603 0.852815
vt 0.073851 0.997547
vt -0.010439 0.999112
vt 0.000240 0.853857
vt 0.999927 0.854200
vt 1.000043 0.997119
vt 0.000162 0.996774
vt -0.000003 0.856681
vt 1.000032 0.856968
vt 1.000336 0.999253
vt 0.000147 0.998964
vt -0.001429 0.849293
vt -0.001429 0.000973
vt 0.998329 0.000973
vt 0.998329 0.849293
vn 0.0000 0.0000 1.0000
vn -1.0000 0.0000 0.0000
vn 1.0000 0.0000 0.0000
vn 0.0000 -1.0000 0.0000
vn 0.0000 -0.1183 -0.9930
vn 0.0000 -0.1183 0.9930
vn -0.5255 -0.8508 0.0000
vn 0.5255 -0.8508 0.0000
vn 0.0000 1.0000 0.0000
vn 0.0000 0.0000 -1.0000
usemtl NoneTextures
s off
f 4/1/1 17/2/1 21/3/1
f 4/1/1 21/3/1 10/4/1
f 11/5/2 22/6/2 25/7/2
f 11/5/2 25/7/2 7/8/2
f 1/9/3 13/10/3 18/11/3
f 1/9/3 18/11/3 5/12/3
f 2/13/4 6/14/4 12/15/4
f 2/13/4 12/15/4 8/16/4
f 14/17/5 26/18/5 41/19/5
f 14/17/5 41/19/5 29/20/5
f 42/21/2 37/22/2 51/23/2
f 42/21/2 51/23/2 54/24/2
f 23/25/6 19/26/6 33/27/6
f 23/25/6 33/27/6 38/28/6
f 27/29/7 24/30/7 39/31/7
f 27/29/7 39/31/7 43/32/7
f 20/33/8 15/34/8 30/35/8
f 20/33/8 30/35/8 34/36/8
f 55/37/9 52/38/9 48/39/9
f 55/37/9 48/39/9 45/40/9
f 35/41/3 31/42/3 46/43/3
f 35/41/3 46/43/3 49/44/3
f 32/45/10 44/46/10 56/47/10
f 32/45/10 56/47/10 47/48/10
f 40/49/1 36/50/1 50/51/1
f 40/49/1 50/51/1 53/52/1
f 16/53/10 3/54/10 9/55/10
f 16/53/10 9/55/10 28/56/10
